{
	"asset":{
		"generator":"Khronos glTF Blender I/O v3.6.28",
		"version":"2.0"
	},
	"extensionsUsed":[
		"KHR_materials_specular",
		"KHR_materials_ior"
	],
	"scene":0,
	"scenes":[
		{
			"name":"Scene",
			"nodes":[
				0,
				1,
				2
			]
		}
	],
	"nodes":[
		{
			"mesh":0,
			"name":"frame",
			"translation":[
				-0.0002924203872680664,
				-0.9729983806610107,
				0.19717663526535034
			]
		},
		{
			"mesh":1,
			"name":"glassBrick01",
			"translation":[
				-1.4031739234924316,
				-0.24956214427947998,
				-1.029260516166687
			]
		},
		{
			"mesh":2,
			"name":"glassBrick02",
			"translation":[
				1.1825146675109863,
				1.239973783493042,
				2.0760018825531006
			]
		}
	],
	"materials":[
		{
			"doubleSided":true,
			"extensions":{
				"KHR_materials_specular":{
					"specularColorFactor":[
						0.3832858638179958,
						0.3832858638179958,
						0.3832858638179958
					]
				},
				"KHR_materials_ior":{
					"ior":1.4500000476837158
				}
			},
			"name":"wood-natural-low-poly",
			"pbrMetallicRoughness":{
				"baseColorFactor":[
					0.7539109587669373,
					0.5688798427581787,
					0.3728482723236084,
					1
				],
				"metallicFactor":0,
				"roughnessFactor":0.5
			}
		},
		{
			"doubleSided":true,
			"extensions":{
				"KHR_materials_specular":{
					"specularColorFactor":[
						0.33313633135731335,
						0.33313633135731335,
						0.33313633135731335
					]
				},
				"KHR_materials_ior":{
					"ior":1.4500000476837158
				}
			},
			"name":"wood-dark-low-poly",
			"pbrMetallicRoughness":{
				"baseColorFactor":[
					0.26866209506988525,
					0.15828514099121094,
					0.09110322594642639,
					1
				],
				"metallicFactor":0,
				"roughnessFactor":0.8232628107070923
			}
		},
		{
			"doubleSided":true,
			"extensions":{
				"KHR_materials_specular":{
					"specularColorFactor":[
						0.3116436443004649,
						0.3116436443004649,
						0.3116436443004649
					]
				},
				"KHR_materials_ior":{
					"ior":1.4500000476837158
				}
			},
			"name":"black-low-poly",
			"pbrMetallicRoughness":{
				"baseColorFactor":[
					0.04801727086305618,
					0.04801727831363678,
					0.04801728576421738,
					1
				],
				"metallicFactor":0,
				"roughnessFactor":0.7326284050941467
			}
		},
		{
			"doubleSided":true,
			"extensions":{
				"KHR_materials_specular":{
					"specularColorFactor":[
						1.8591156282823111,
						1.8591156282823111,
						1.8591156282823111
					]
				},
				"KHR_materials_ior":{
					"ior":1.4500000476837158
				}
			},
			"name":"glass-low-poly",
			"pbrMetallicRoughness":{
				"baseColorFactor":[
					0.34396639466285706,
					0.5110756754875183,
					0.5079169869422913,
					1
				],
				"metallicFactor":0,
				"roughnessFactor":0
			}
		}
	],
	"meshes":[
		{
			"name":"Cylinder.003",
			"primitives":[
				{
					"attributes":{
						"POSITION":0,
						"NORMAL":1,
						"TEXCOORD_0":2
					},
					"indices":3,
					"material":0
				},
				{
					"attributes":{
						"POSITION":4,
						"NORMAL":5,
						"TEXCOORD_0":6
					},
					"indices":7,
					"material":1
				},
				{
					"attributes":{
						"POSITION":8,
						"NORMAL":9,
						"TEXCOORD_0":10
					},
					"indices":11,
					"material":2
				}
			]
		},
		{
			"name":"Cube.012",
			"primitives":[
				{
					"attributes":{
						"POSITION":12,
						"NORMAL":13,
						"TEXCOORD_0":14
					},
					"indices":15,
					"material":3
				}
			]
		},
		{
			"name":"Cube.013",
			"primitives":[
				{
					"attributes":{
						"POSITION":16,
						"NORMAL":17,
						"TEXCOORD_0":18
					},
					"indices":19,
					"material":3
				}
			]
		}
	],
	"accessors":[
		{
			"bufferView":0,
			"componentType":5126,
			"count":312,
			"max":[
				0.6227278113365173,
				0.20963701605796814,
				0.9949966669082642
			],
			"min":[
				-0.9491922855377197,
				-0.03998173028230667,
				-0.33517318964004517
			],
			"type":"VEC3"
		},
		{
			"bufferView":1,
			"componentType":5126,
			"count":312,
			"type":"VEC3"
		},
		{
			"bufferView":2,
			"componentType":5126,
			"count":312,
			"type":"VEC2"
		},
		{
			"bufferView":3,
			"componentType":5123,
			"count":816,
			"type":"SCALAR"
		},
		{
			"bufferView":4,
			"componentType":5126,
			"count":152,
			"max":[
				0.8815104961395264,
				2.907909870147705,
				1.172752857208252
			],
			"min":[
				-0.9889824390411377,
				-0.5923488140106201,
				-0.9545170068740845
			],
			"type":"VEC3"
		},
		{
			"bufferView":5,
			"componentType":5126,
			"count":152,
			"type":"VEC3"
		},
		{
			"bufferView":6,
			"componentType":5126,
			"count":152,
			"type":"VEC2"
		},
		{
			"bufferView":7,
			"componentType":5123,
			"count":354,
			"type":"SCALAR"
		},
		{
			"bufferView":8,
			"componentType":5126,
			"count":280,
			"max":[
				0.2969539165496826,
				2.9258806705474854,
				0.06319183856248856
			],
			"min":[
				-0.14374032616615295,
				2.382704496383667,
				-0.37406760454177856
			],
			"type":"VEC3"
		},
		{
			"bufferView":9,
			"componentType":5126,
			"count":280,
			"type":"VEC3"
		},
		{
			"bufferView":10,
			"componentType":5126,
			"count":280,
			"type":"VEC2"
		},
		{
			"bufferView":11,
			"componentType":5123,
			"count":294,
			"type":"SCALAR"
		},
		{
			"bufferView":12,
			"componentType":5126,
			"count":215,
			"max":[
				1.0055220127105713,
				0.580668568611145,
				0.9681645035743713
			],
			"min":[
				-0.9830350279808044,
				-0.6404760479927063,
				-0.9609920978546143
			],
			"type":"VEC3"
		},
		{
			"bufferView":13,
			"componentType":5126,
			"count":215,
			"type":"VEC3"
		},
		{
			"bufferView":14,
			"componentType":5126,
			"count":215,
			"type":"VEC2"
		},
		{
			"bufferView":15,
			"componentType":5123,
			"count":492,
			"type":"SCALAR"
		},
		{
			"bufferView":16,
			"componentType":5126,
			"count":215,
			"max":[
				0.8223888874053955,
				1.0199919939041138,
				0.8225118517875671
			],
			"min":[
				-0.8468593955039978,
				-0.9895551204681396,
				-0.8768481016159058
			],
			"type":"VEC3"
		},
		{
			"bufferView":17,
			"componentType":5126,
			"count":215,
			"type":"VEC3"
		},
		{
			"bufferView":18,
			"componentType":5126,
			"count":215,
			"type":"VEC2"
		},
		{
			"bufferView":19,
			"componentType":5123,
			"count":492,
			"type":"SCALAR"
		}
	],
	"bufferViews":[
		{
			"buffer":0,
			"byteLength":3744,
			"byteOffset":0,
			"target":34962
		},
		{
			"buffer":0,
			"byteLength":3744,
			"byteOffset":3744,
			"target":34962
		},
		{
			"buffer":0,
			"byteLength":2496,
			"byteOffset":7488,
			"target":34962
		},
		{
			"buffer":0,
			"byteLength":1632,
			"byteOffset":9984,
			"target":34963
		},
		{
			"buffer":0,
			"byteLength":1824,
			"byteOffset":11616,
			"target":34962
		},
		{
			"buffer":0,
			"byteLength":1824,
			"byteOffset":13440,
			"target":34962
		},
		{
			"buffer":0,
			"byteLength":1216,
			"byteOffset":15264,
			"target":34962
		},
		{
			"buffer":0,
			"byteLength":708,
			"byteOffset":16480,
			"target":34963
		},
		{
			"buffer":0,
			"byteLength":3360,
			"byteOffset":17188,
			"target":34962
		},
		{
			"buffer":0,
			"byteLength":3360,
			"byteOffset":20548,
			"target":34962
		},
		{
			"buffer":0,
			"byteLength":2240,
			"byteOffset":23908,
			"target":34962
		},
		{
			"buffer":0,
			"byteLength":588,
			"byteOffset":26148,
			"target":34963
		},
		{
			"buffer":0,
			"byteLength":2580,
			"byteOffset":26736,
			"target":34962
		},
		{
			"buffer":0,
			"byteLength":2580,
			"byteOffset":29316,
			"target":34962
		},
		{
			"buffer":0,
			"byteLength":1720,
			"byteOffset":31896,
			"target":34962
		},
		{
			"buffer":0,
			"byteLength":984,
			"byteOffset":33616,
			"target":34963
		},
		{
			"buffer":0,
			"byteLength":2580,
			"byteOffset":34600,
			"target":34962
		},
		{
			"buffer":0,
			"byteLength":2580,
			"byteOffset":37180,
			"target":34962
		},
		{
			"buffer":0,
			"byteLength":1720,
			"byteOffset":39760,
			"target":34962
		},
		{
			"buffer":0,
			"byteLength":984,
			"byteOffset":41480,
			"target":34963
		}
	],
	"buffers":[
		{
			"byteLength":42464,
			"uri":"data:application/octet-stream;base64,"
		}
	]
}
