{
	"asset":{
		"generator":"Khronos glTF Blender I/O v3.6.28",
		"version":"2.0"
	},
	"scene":0,
	"scenes":[
		{
			"name":"Scene",
			"nodes":[
				0,
				1,
				2
			]
		}
	],
	"nodes":[
		{
			"mesh":0,
			"name":"frame.001"
		},
		{
			"mesh":1,
			"name":"glassBrickBottom"
		},
		{
			"mesh":2,
			"name":"glassBrickTop"
		}
	],
	"animations":[
		{
			"channels":[
				{
					"sampler":0,
					"target":{
						"node":0,
						"path":"translation"
					}
				},
				{
					"sampler":1,
					"target":{
						"node":0,
						"path":"rotation"
					}
				}
			],
			"name":"frame.001Action.001",
			"samplers":[
				{
					"input":12,
					"interpolation":"LINEAR",
					"output":13
				},
				{
					"input":12,
					"interpolation":"LINEAR",
					"output":14
				}
			]
		},
		{
			"channels":[
				{
					"sampler":0,
					"target":{
						"node":1,
						"path":"translation"
					}
				},
				{
					"sampler":1,
					"target":{
						"node":1,
						"path":"rotation"
					}
				}
			],
			"name":"glassBrickBottomAction.001",
			"samplers":[
				{
					"input":15,
					"interpolation":"LINEAR",
					"output":16
				},
				{
					"input":15,
					"interpolation":"LINEAR",
					"output":17
				}
			]
		},
		{
			"channels":[
				{
					"sampler":0,
					"target":{
						"node":2,
						"path":"translation"
					}
				},
				{
					"sampler":1,
					"target":{
						"node":2,
						"path":"rotation"
					}
				}
			],
			"name":"glassBrickTopAction.001",
			"samplers":[
				{
					"input":15,
					"interpolation":"LINEAR",
					"output":18
				},
				{
					"input":15,
					"interpolation":"LINEAR",
					"output":19
				}
			]
		}
	],
	"meshes":[
		{
			"name":"Cylinder.001",
			"primitives":[
				{
					"attributes":{
						"POSITION":0,
						"NORMAL":1,
						"TEXCOORD_0":2
					},
					"indices":3
				}
			]
		},
		{
			"name":"Cube.007",
			"primitives":[
				{
					"attributes":{
						"POSITION":4,
						"NORMAL":5,
						"TEXCOORD_0":6
					},
					"indices":7
				}
			]
		},
		{
			"name":"Cube.008",
			"primitives":[
				{
					"attributes":{
						"POSITION":8,
						"NORMAL":9,
						"TEXCOORD_0":10
					},
					"indices":11
				}
			]
		}
	],
	"accessors":[
		{
			"bufferView":0,
			"componentType":5126,
			"count":744,
			"max":[
				0.5346054434776306,
				3.8961052894592285,
				0.6708806157112122
			],
			"min":[
				-0.5218973755836487,
				0.42720258235931396,
				-0.6793610453605652
			],
			"type":"VEC3"
		},
		{
			"bufferView":1,
			"componentType":5126,
			"count":744,
			"type":"VEC3"
		},
		{
			"bufferView":2,
			"componentType":5126,
			"count":744,
			"type":"VEC2"
		},
		{
			"bufferView":3,
			"componentType":5123,
			"count":1464,
			"type":"SCALAR"
		},
		{
			"bufferView":4,
			"componentType":5126,
			"count":212,
			"max":[
				0.9178752303123474,
				1.793934941291809,
				0.4535427987575531
			],
			"min":[
				-0.944847822189331,
				1.0658507347106934,
				-0.45742860436439514
			],
			"type":"VEC3"
		},
		{
			"bufferView":5,
			"componentType":5126,
			"count":212,
			"type":"VEC3"
		},
		{
			"bufferView":6,
			"componentType":5126,
			"count":212,
			"type":"VEC2"
		},
		{
			"bufferView":7,
			"componentType":5123,
			"count":492,
			"type":"SCALAR"
		},
		{
			"bufferView":8,
			"componentType":5126,
			"count":212,
			"max":[
				0.9205523729324341,
				2.5628905296325684,
				0.44706642627716064
			],
			"min":[
				-0.9421709179878235,
				1.8348064422607422,
				-0.4639055132865906
			],
			"type":"VEC3"
		},
		{
			"bufferView":9,
			"componentType":5126,
			"count":212,
			"type":"VEC3"
		},
		{
			"bufferView":10,
			"componentType":5126,
			"count":212,
			"type":"VEC2"
		},
		{
			"bufferView":11,
			"componentType":5123,
			"count":492,
			"type":"SCALAR"
		},
		{
			"bufferView":12,
			"componentType":5126,
			"count":121,
			"max":[
				10
			],
			"min":[
				5
			],
			"type":"SCALAR"
		},
		{
			"bufferView":13,
			"componentType":5126,
			"count":121,
			"type":"VEC3"
		},
		{
			"bufferView":14,
			"componentType":5126,
			"count":121,
			"type":"VEC4"
		},
		{
			"bufferView":15,
			"componentType":5126,
			"count":241,
			"max":[
				10
			],
			"min":[
				0
			],
			"type":"SCALAR"
		},
		{
			"bufferView":16,
			"componentType":5126,
			"count":241,
			"type":"VEC3"
		},
		{
			"bufferView":17,
			"componentType":5126,
			"count":241,
			"type":"VEC4"
		},
		{
			"bufferView":18,
			"componentType":5126,
			"count":241,
			"type":"VEC3"
		},
		{
			"bufferView":19,
			"componentType":5126,
			"count":241,
			"type":"VEC4"
		}
	],
	"bufferViews":[
		{
			"buffer":0,
			"byteLength":8928,
			"byteOffset":0,
			"target":34962
		},
		{
			"buffer":0,
			"byteLength":8928,
			"byteOffset":8928,
			"target":34962
		},
		{
			"buffer":0,
			"byteLength":5952,
			"byteOffset":17856,
			"target":34962
		},
		{
			"buffer":0,
			"byteLength":2928,
			"byteOffset":23808,
			"target":34963
		},
		{
			"buffer":0,
			"byteLength":2544,
			"byteOffset":26736,
			"target":34962
		},
		{
			"buffer":0,
			"byteLength":2544,
			"byteOffset":29280,
			"target":34962
		},
		{
			"buffer":0,
			"byteLength":1696,
			"byteOffset":31824,
			"target":34962
		},
		{
			"buffer":0,
			"byteLength":984,
			"byteOffset":33520,
			"target":34963
		},
		{
			"buffer":0,
			"byteLength":2544,
			"byteOffset":34504,
			"target":34962
		},
		{
			"buffer":0,
			"byteLength":2544,
			"byteOffset":37048,
			"target":34962
		},
		{
			"buffer":0,
			"byteLength":1696,
			"byteOffset":39592,
			"target":34962
		},
		{
			"buffer":0,
			"byteLength":984,
			"byteOffset":41288,
			"target":34963
		},
		{
			"buffer":0,
			"byteLength":484,
			"byteOffset":42272
		},
		{
			"buffer":0,
			"byteLength":1452,
			"byteOffset":42756
		},
		{
			"buffer":0,
			"byteLength":1936,
			"byteOffset":44208
		},
		{
			"buffer":0,
			"byteLength":964,
			"byteOffset":46144
		},
		{
			"buffer":0,
			"byteLength":2892,
			"byteOffset":47108
		},
		{
			"buffer":0,
			"byteLength":3856,
			"byteOffset":50000
		},
		{
			"buffer":0,
			"byteLength":2892,
			"byteOffset":53856
		},
		{
			"buffer":0,
			"byteLength":3856,
			"byteOffset":56748
		}
	],
	"buffers":[
		{
			"byteLength":60604,
			"uri":"data:application/octet-stream;base64,"
		}
	]
}
