{
    "asset" : {
        "generator" : "Khronos glTF Blender I/O v3.3.32",
        "version" : "2.0"
    },
    "scene" : 0,
    "scenes" : [
        {
            "name" : "Scene",
            "nodes" : [
                0
            ]
        }
    ],
    "nodes" : [
        {
            "mesh" : 0,
            "name" : "glassBrickModified",
            "translation" : [
                0.00158768892288208,
                0.015765659511089325,
                -0.0053972043097019196
            ]
        }
    ],
    "meshes" : [
        {
            "name" : "Cube.017",
            "primitives" : [
                {
                    "attributes" : {
                        "POSITION" : 0,
                        "NORMAL" : 1,
                        "TEXCOORD_0" : 2
                    },
                    "indices" : 3
                }
            ]
        }
    ],
    "accessors" : [
        {
            "bufferView" : 0,
            "componentType" : 5126,
            "count" : 9617,
            "max" : [
                0.9455776214599609,
                0.3999328911304474,
                0.4462740421295166
            ],
            "min" : [
                -0.945563793182373,
                -0.3991434574127197,
                -0.44631269574165344
            ],
            "type" : "VEC3"
        },
        {
            "bufferView" : 1,
            "componentType" : 5126,
            "count" : 9617,
            "type" : "VEC3"
        },
        {
            "bufferView" : 2,
            "componentType" : 5126,
            "count" : 9617,
            "type" : "VEC2"
        },
        {
            "bufferView" : 3,
            "componentType" : 5123,
            "count" : 18621,
            "type" : "SCALAR"
        }
    ],
    "bufferViews" : [
        {
            "buffer" : 0,
            "byteLength" : 115404,
            "byteOffset" : 0,
            "target" : 34962
        },
        {
            "buffer" : 0,
            "byteLength" : 115404,
            "byteOffset" : 115404,
            "target" : 34962
        },
        {
            "buffer" : 0,
            "byteLength" : 76936,
            "byteOffset" : 230808,
            "target" : 34962
        },
        {
            "buffer" : 0,
            "byteLength" : 37242,
            "byteOffset" : 307744,
            "target" : 34963
        }
    ],
    "buffers" : [
        {
            "byteLength" : 344988,
            "uri" : "data:application/octet-stream;base64,"
        }
    ]
}
