{
    "asset" : {
        "generator" : "Khronos glTF Blender I/O v3.3.32",
        "version" : "2.0"
    },
    "scene" : 0,
    "scenes" : [
        {
            "name" : "Scene",
            "nodes" : [
                0
            ]
        }
    ],
    "nodes" : [
        {
            "mesh" : 0,
            "name" : "logo",
            "translation" : [
                0,
                0.17303355038166046,
                0
            ]
        }
    ],
    "meshes" : [
        {
            "name" : "Curve.005",
            "primitives" : [
                {
                    "attributes" : {
                        "POSITION" : 0,
                        "NORMAL" : 1,
                        "TEXCOORD_0" : 2
                    },
                    "indices" : 3
                }
            ]
        }
    ],
    "accessors" : [
        {
            "bufferView" : 0,
            "componentType" : 5126,
            "count" : 649,
            "max" : [
                0.1906580626964569,
                0.1673351675271988,
                0.05234070122241974
            ],
            "min" : [
                -0.25091683864593506,
                -0.1713871955871582,
                -0.05650555342435837
            ],
            "type" : "VEC3"
        },
        {
            "bufferView" : 1,
            "componentType" : 5126,
            "count" : 649,
            "type" : "VEC3"
        },
        {
            "bufferView" : 2,
            "componentType" : 5126,
            "count" : 649,
            "type" : "VEC2"
        },
        {
            "bufferView" : 3,
            "componentType" : 5123,
            "count" : 3858,
            "type" : "SCALAR"
        }
    ],
    "bufferViews" : [
        {
            "buffer" : 0,
            "byteLength" : 7788,
            "byteOffset" : 0,
            "target" : 34962
        },
        {
            "buffer" : 0,
            "byteLength" : 7788,
            "byteOffset" : 7788,
            "target" : 34962
        },
        {
            "buffer" : 0,
            "byteLength" : 5192,
            "byteOffset" : 15576,
            "target" : 34962
        },
        {
            "buffer" : 0,
            "byteLength" : 7716,
            "byteOffset" : 20768,
            "target" : 34963
        }
    ],
    "buffers" : [
        {
            "byteLength" : 28484,
            "uri" : "data:application/octet-stream;base64,"
        }
    ]
}
