{
    "asset" : {
        "generator" : "Khronos glTF Blender I/O v3.3.32",
        "version" : "2.0"
    },
    "scene" : 0,
    "scenes" : [
        {
            "name" : "Scene",
            "nodes" : [
                0,
                1,
                2
            ]
        }
    ],
    "nodes" : [
        {
            "mesh" : 0,
            "name" : "walls.001",
            "scale" : [
                -9.998348236083984,
                -9.998348236083984,
                -9.998348236083984
            ],
            "translation" : [
                0,
                6.684504985809326,
                0
            ]
        },
        {
            "mesh" : 1,
            "name" : "beams.003",
            "scale" : [
                11.707274436950684,
                0.5626524686813354,
                0.6495459079742432
            ],
            "translation" : [
                0,
                16.209434509277344,
                5.090677738189697
            ]
        },
        {
            "mesh" : 2,
            "name" : "ceiling.002",
            "scale" : [
                9.267891883850098,
                0.0954430028796196,
                0.49473848938941956
            ],
            "translation" : [
                0,
                15.134560585021973,
                15.806476593017578
            ]
        }
    ],
    "materials" : [
        {
            "doubleSided" : true,
            "name" : "dark-color-wall",
            "pbrMetallicRoughness" : {
                "baseColorFactor" : [
                    0.01618100330233574,
                    0.015524838119745255,
                    0.013521196320652962,
                    1
                ],
                "metallicFactor" : 0,
                "roughnessFactor" : 0.5
            }
        },
        {
            "doubleSided" : true,
            "name" : "dark-color-wood",
            "pbrMetallicRoughness" : {
                "baseColorFactor" : [
                    0.03892115131020546,
                    0.02716716378927231,
                    0.01818607561290264,
                    1
                ],
                "metallicFactor" : 0,
                "roughnessFactor" : 0.5
            }
        }
    ],
    "meshes" : [
        {
            "name" : "Cube",
            "primitives" : [
                {
                    "attributes" : {
                        "POSITION" : 0,
                        "NORMAL" : 1,
                        "TEXCOORD_0" : 2
                    },
                    "indices" : 3,
                    "material" : 0
                }
            ]
        },
        {
            "name" : "Cube.006",
            "primitives" : [
                {
                    "attributes" : {
                        "POSITION" : 4,
                        "NORMAL" : 5,
                        "TEXCOORD_0" : 6
                    },
                    "indices" : 7,
                    "material" : 0
                }
            ]
        },
        {
            "name" : "Cube.007",
            "primitives" : [
                {
                    "attributes" : {
                        "POSITION" : 8,
                        "NORMAL" : 9,
                        "TEXCOORD_0" : 10
                    },
                    "indices" : 11,
                    "material" : 1
                }
            ]
        }
    ],
    "accessors" : [
        {
            "bufferView" : 0,
            "componentType" : 5126,
            "count" : 12,
            "max" : [
                1,
                0.6621251106262207,
                1
            ],
            "min" : [
                -1,
                -1,
                -2.0050110816955566
            ],
            "type" : "VEC3"
        },
        {
            "bufferView" : 1,
            "componentType" : 5126,
            "count" : 12,
            "type" : "VEC3"
        },
        {
            "bufferView" : 2,
            "componentType" : 5126,
            "count" : 12,
            "type" : "VEC2"
        },
        {
            "bufferView" : 3,
            "componentType" : 5123,
            "count" : 18,
            "type" : "SCALAR"
        },
        {
            "bufferView" : 4,
            "componentType" : 5126,
            "count" : 136,
            "max" : [
                0.7496428489685059,
                0.4521681070327759,
                23.122142791748047
            ],
            "min" : [
                -0.7496427297592163,
                -1.5478320121765137,
                -20.514930725097656
            ],
            "type" : "VEC3"
        },
        {
            "bufferView" : 5,
            "componentType" : 5126,
            "count" : 136,
            "type" : "VEC3"
        },
        {
            "bufferView" : 6,
            "componentType" : 5126,
            "count" : 136,
            "type" : "VEC2"
        },
        {
            "bufferView" : 7,
            "componentType" : 5123,
            "count" : 210,
            "type" : "SCALAR"
        },
        {
            "bufferView" : 8,
            "componentType" : 5126,
            "count" : 516,
            "max" : [
                0.9040040969848633,
                1,
                0.4526299238204956
            ],
            "min" : [
                -0.9040043354034424,
                -1,
                -47.978790283203125
            ],
            "type" : "VEC3"
        },
        {
            "bufferView" : 9,
            "componentType" : 5126,
            "count" : 516,
            "type" : "VEC3"
        },
        {
            "bufferView" : 10,
            "componentType" : 5126,
            "count" : 516,
            "type" : "VEC2"
        },
        {
            "bufferView" : 11,
            "componentType" : 5123,
            "count" : 774,
            "type" : "SCALAR"
        }
    ],
    "bufferViews" : [
        {
            "buffer" : 0,
            "byteLength" : 144,
            "byteOffset" : 0,
            "target" : 34962
        },
        {
            "buffer" : 0,
            "byteLength" : 144,
            "byteOffset" : 144,
            "target" : 34962
        },
        {
            "buffer" : 0,
            "byteLength" : 96,
            "byteOffset" : 288,
            "target" : 34962
        },
        {
            "buffer" : 0,
            "byteLength" : 36,
            "byteOffset" : 384,
            "target" : 34963
        },
        {
            "buffer" : 0,
            "byteLength" : 1632,
            "byteOffset" : 420,
            "target" : 34962
        },
        {
            "buffer" : 0,
            "byteLength" : 1632,
            "byteOffset" : 2052,
            "target" : 34962
        },
        {
            "buffer" : 0,
            "byteLength" : 1088,
            "byteOffset" : 3684,
            "target" : 34962
        },
        {
            "buffer" : 0,
            "byteLength" : 420,
            "byteOffset" : 4772,
            "target" : 34963
        },
        {
            "buffer" : 0,
            "byteLength" : 6192,
            "byteOffset" : 5192,
            "target" : 34962
        },
        {
            "buffer" : 0,
            "byteLength" : 6192,
            "byteOffset" : 11384,
            "target" : 34962
        },
        {
            "buffer" : 0,
            "byteLength" : 4128,
            "byteOffset" : 17576,
            "target" : 34962
        },
        {
            "buffer" : 0,
            "byteLength" : 1548,
            "byteOffset" : 21704,
            "target" : 34963
        }
    ],
    "buffers" : [
        {
            "byteLength" : 23252,
            "uri" : "data:application/octet-stream;base64,"
        }
    ]
}
