<?xml version="1.0" encoding="utf-8"?>
<!-- Generator: Adobe Illustrator 27.0.0, SVG Export Plug-In . SVG Version: 6.00 Build 0)  -->
<svg version="1.1" id="Layer_1" transform="rotate(0)"
	 xmlns="http://www.w3.org/2000/svg" xmlns:xlink="http://www.w3.org/1999/xlink" x="0px" y="0px" viewBox="0 0 800 800"
	 style="enable-background:new 0 0 800 800;" xml:space="preserve">
<style type="text/css">
	.st0{fill:#FFFFFF;}
</style>
<path class="st0" d="M683.2,740.4H116.8c-8.6,0-15.6-7-15.6-15.6V391c0-8.6,7-15.6,15.6-15.6h207.8c0.8,0,1.4-0.6,1.4-1.4V75.2
	c0-8.6,7-15.6,15.6-15.6h341.6c8.6,0,15.6,7,15.6,15.6v649.7C698.8,733.4,691.8,740.4,683.2,740.4z M116.8,389.6
	c-0.8,0-1.4,0.6-1.4,1.4v333.8c0,0.8,0.6,1.4,1.4,1.4h566.4c0.8,0,1.4-0.6,1.4-1.4V75.2c0-0.8-0.6-1.4-1.4-1.4H341.6
	c-0.8,0-1.4,0.6-1.4,1.4V374c0,8.6-7,15.6-15.6,15.6H116.8z"/>
<path class="st0" d="M523,653.3c0,3.6-4.2,5.6-7,3.3l-51.6-43c-2-1.7-2-4.8,0-6.5l51.6-43c2.8-2.3,7-0.3,7,3.3v28.4
	c0,2.3,1.9,4.2,4.2,4.2h74.8c2.3,0,4.2-1.9,4.2-4.2v-54c0-2.3,1.9-4.2,4.2-4.2h12.3c2.3,0,4.2,1.9,4.2,4.2v74.8
	c0,2.3-1.9,4.2-4.2,4.2h-95.7c-2.3,0-4.2,1.9-4.2,4.2"/>
<g>
	<path class="st0" d="M237.7,580.2h-34v14.7h26.7v13.4h-26.7v15.6h34v14.1h-51v-71.4h51V580.2z"/>
	<path class="st0" d="M293,638.1h-15.6v-29.7c0-3.6-0.1-6.1-0.4-7.4c-0.3-1.3-1-2.5-2-3.4c-1.1-0.9-2.4-1.4-4.1-1.4
		c-5.5,0-8.2,4-8.2,12.1v29.7H247v-52.9h14.5v8.9c2.4-4.3,4.8-7,7.1-8.2c2.3-1.2,4.9-1.8,7.6-1.8c5,0,9.1,1.4,12.1,4.1
		c3.1,2.7,4.6,8,4.6,15.9V638.1z"/>
	<path class="st0" d="M323.4,597.3v22.3c0,2.8,0.4,4.7,1.2,5.6c0.8,0.9,2.8,1.4,5.9,1.4c1.4,0,3.1-0.1,5-0.2v11.6
		c-4.5,0.8-7.8,1.2-9.8,1.2c-6.5,0-11.1-1.2-13.8-3.7s-4.1-7-4.1-13.5v-24.6h-8.4v-12.1h9.3l1.3-15.6l13.4-1v16.6h11.4v12.1H323.4z"
		/>
	<path class="st0" d="M390.5,614.2h-34c0,0.9-0.1,1.8-0.1,2.5c0,3.8,1,6.6,3,8.5c2,1.9,4.4,2.9,7.2,2.9c5.2,0,8.3-2.8,9.4-8.3
		l14.1,1c-3.9,12.2-11.9,18.3-24,18.3c-5.3,0-9.7-1.1-13.4-3.2c-3.7-2.1-6.7-5.2-9.1-9.2c-2.4-4-3.6-8.9-3.6-14.5
		c0-8.4,2.4-15.2,7.2-20.4c4.8-5.2,11-7.7,18.5-7.7c6.8,0,12.6,2.4,17.5,7.2C388,596.1,390.5,603.7,390.5,614.2z M356.4,605.2h18.8
		c-0.5-7.3-3.5-10.9-8.9-10.9C360.4,594.3,357.1,597.9,356.4,605.2z"/>
	<path class="st0" d="M415.4,638.1h-15.1v-52.9h14.3v9.8c2.2-7.3,6-11,11.4-11c0.8,0,1.7,0.1,2.8,0.2v15.4c-3.2,0-5.6,0.5-7.4,1.5
		c-1.8,1-3.2,2.7-4.3,5.3c-1.1,2.5-1.7,5.9-1.7,10.2V638.1z"/>
</g>
</svg>
