<?xml version="1.0" encoding="utf-8"?>
<!-- Generator: Adobe Illustrator 27.0.0, SVG Export Plug-In . SVG Version: 6.00 Build 0)  -->
<svg version="1.1" id="Layer_1" xmlns="http://www.w3.org/2000/svg" xmlns:xlink="http://www.w3.org/1999/xlink" x="0px" y="0px"
	 viewBox="0 0 64 64" style="enable-background:new 0 0 64 64;" xml:space="preserve">
<style type="text/css">
	.st0{fill:#434343;}
</style>
<path class="st0" d="M44.5,14.8c2.5,0,4.6,2.1,4.6,4.6v25.1c0,2.5-2.1,4.6-4.6,4.6H19.5c-2.5,0-4.6-2.1-4.6-4.6V19.5
	c0-2.5,2.1-4.6,4.6-4.6L44.5,14.8 M44.5,12H19.5c-4.1,0-7.5,3.3-7.5,7.5v25.1c0,4.1,3.3,7.5,7.5,7.5h25.1c4.1,0,7.5-3.3,7.5-7.5
	V19.5C52,15.3,48.7,12,44.5,12L44.5,12z"/>
<g>
	<path class="st0" d="M20.3,21.7v2.1c0,0.2,0.1,0.3,0.3,0.3h3.3v1.2h-3.3c-0.2,0-0.3,0.1-0.3,0.3v2.1c0,0.2,0.1,0.3,0.3,0.3H25v1.2
		h-5.7c-0.2,0-0.3-0.1-0.3-0.3v-8.4c0-0.2,0.1-0.3,0.3-0.3H25v1.2h-4.4C20.4,21.4,20.3,21.5,20.3,21.7L20.3,21.7z"/>
	<path class="st0" d="M29,29.4c-0.5,0-1,0-1.3,0s-0.7-0.1-1-0.1l0.1-1.2c0.5,0.1,0.8,0.1,1.2,0.1s0.7,0,1,0c0.7,0,1.2-0.1,1.5-0.2
		c0.3-0.1,0.5-0.4,0.5-0.6c0-0.2,0-0.4-0.2-0.5c-0.1-0.1-0.3-0.2-0.5-0.2l-1.6-0.4c-0.7-0.2-1.2-0.4-1.5-0.6s-0.5-0.6-0.5-1.1
		c0-0.7,0.3-1.3,0.9-1.6s1.5-0.5,2.8-0.5c0.3,0,0.6,0,0.9,0c0.3,0,0.6,0,0.9,0.1L32,23.7c-0.4,0-0.6-0.1-0.9-0.1s-0.5,0-0.8,0
		c-0.8,0-1.3,0.1-1.6,0.2s-0.5,0.3-0.5,0.6c0,0.2,0.1,0.3,0.2,0.4s0.4,0.2,0.6,0.2l1.2,0.3c0.7,0.2,1.2,0.4,1.6,0.7
		c0.3,0.3,0.5,0.7,0.5,1.2c0,0.7-0.3,1.3-0.8,1.6C31,29.2,30.2,29.4,29,29.4L29,29.4z"/>
	<path class="st0" d="M37.8,29.4c-1.2,0-2-0.3-2.7-0.9c-0.6-0.6-0.9-1.5-0.9-2.6s0.3-2,0.9-2.6s1.4-0.9,2.5-0.9
		c0.7,0,1.2,0.1,1.7,0.4s0.8,0.6,1,1l-1,0.8c-0.2-0.3-0.4-0.5-0.7-0.7s-0.6-0.3-1-0.3c-0.6,0-1.1,0.2-1.5,0.6
		c-0.3,0.4-0.5,0.9-0.5,1.6c0,0.8,0.2,1.4,0.6,1.8c0.4,0.4,1,0.6,1.8,0.6c0.3,0,0.6,0,1,0s0.6-0.1,0.9-0.1l0.2,1.2
		c-0.3,0.1-0.7,0.1-1.1,0.1C38.6,29.4,38.2,29.4,37.8,29.4L37.8,29.4z"/>
</g>
</svg>
