<?xml version="1.0" encoding="UTF-8"?><svg id="Layer_1" xmlns="http://www.w3.org/2000/svg" viewBox="0 0 64 64"><defs><style>.cls-1{fill:#fcfaf2;}</style></defs><path class="cls-1" d="M44.54,14.83c2.55,0,4.63,2.07,4.63,4.63v25.08c0,2.55-2.07,4.63-4.63,4.63H19.46c-2.55,0-4.63-2.07-4.63-4.63V19.46c0-2.55,2.07-4.63,4.63-4.63h25.08m0-2.83H19.46c-4.12,0-7.46,3.34-7.46,7.46v25.08c0,4.12,3.34,7.46,7.46,7.46h25.08c4.12,0,7.46-3.34,7.46-7.46V19.46c0-4.12-3.34-7.46-7.46-7.46h0Z"/><g><path class="cls-1" d="M20.3,21.69v2.08c0,.17,.14,.31,.31,.31h3.27v1.21h-3.27c-.17,0-.31,.14-.31,.31v2.09c0,.17,.14,.31,.31,.31h4.42v1.22h-5.7c-.17,0-.31-.14-.31-.31v-8.44c0-.17,.14-.31,.31-.31h5.7v1.21h-4.42c-.17,0-.31,.14-.31,.31Z"/><path class="cls-1" d="M28.98,29.37c-.51,0-.95-.02-1.31-.04s-.7-.08-1-.15l.15-1.23c.45,.07,.84,.12,1.19,.15s.67,.05,.97,.05c.69,0,1.18-.07,1.49-.2,.31-.13,.46-.35,.46-.64,0-.2-.05-.36-.16-.46-.11-.1-.28-.18-.5-.23l-1.56-.4c-.67-.17-1.16-.38-1.47-.63s-.47-.63-.47-1.14c0-.74,.28-1.28,.85-1.61,.57-.33,1.49-.5,2.75-.5,.33,0,.63,0,.92,.03,.28,.02,.57,.05,.87,.1l-.14,1.18c-.35-.03-.65-.06-.91-.07s-.52-.02-.77-.02c-.76,0-1.31,.06-1.65,.19s-.51,.34-.51,.64c0,.2,.07,.34,.21,.42s.36,.17,.65,.24l1.25,.31c.71,.17,1.23,.4,1.56,.68,.33,.29,.5,.7,.5,1.25,0,.73-.27,1.26-.8,1.59-.53,.33-1.39,.5-2.56,.5Z"/><path class="cls-1" d="M37.82,29.37c-1.15,0-2.05-.3-2.67-.91-.63-.61-.94-1.48-.94-2.62s.3-1.97,.89-2.58c.59-.61,1.44-.92,2.55-.92,.66,0,1.23,.12,1.7,.37,.47,.25,.81,.59,1.01,1.04l-1.04,.79c-.19-.31-.44-.55-.73-.72s-.62-.26-.98-.26c-.64,0-1.13,.19-1.49,.58-.35,.39-.53,.93-.53,1.65,0,.77,.21,1.36,.62,1.77,.42,.41,1.01,.61,1.78,.61,.31,0,.63-.02,.95-.04s.62-.07,.92-.12l.15,1.19c-.35,.08-.71,.13-1.08,.15-.37,.03-.74,.04-1.09,.04Z"/></g></svg>