<?xml version="1.0" encoding="UTF-8"?><svg id="Fill-in" xmlns="http://www.w3.org/2000/svg" viewBox="0 0 674.69 674.69"><defs><style>.cls-1,.cls-2{fill:#fff;}.cls-2{font-family:GillSansMT-Bold, 'Gill Sans MT';font-size:59.53px;font-weight:700;}</style></defs><circle class="cls-1" cx="192.25" cy="309.65" r="41.36"/><path class="cls-1" d="M440.39,209.18v330.85h-165.43v-230.38c0-45.68-37.03-82.71-82.71-82.71H109.54v-17.76H440.39Z"/><path class="cls-1" d="M540.86,250.54c0,14.07-7.03,26.49-17.76,33.96-6.69,4.66-14.83,7.39-23.59,7.39-22.84,0-41.36-18.51-41.36-41.35s18.52-41.36,41.36-41.36c8.76,0,16.9,2.73,23.59,7.39,10.73,7.47,17.76,19.9,17.76,33.97Z"/><text class="cls-2" transform="translate(270.57 57.25) rotate(-9.69)"><tspan x="0" y="0">L</tspan></text><text class="cls-2" transform="translate(305.53 51.25) rotate(-2.78)"><tspan x="0" y="0">o</tspan></text><text class="cls-2" transform="translate(339.8 49.64) rotate(3.58)"><tspan x="0" y="0">a</tspan></text><text class="cls-2" transform="translate(370.25 51.39) rotate(9.95)"><tspan x="0" y="0">d</tspan></text><text class="cls-2" transform="translate(403.53 57.6) rotate(14.88)"><tspan x="0" y="0">i</tspan></text><text class="cls-2" transform="translate(418.43 61.11) rotate(19.82)"><tspan x="0" y="0">n</tspan></text><text class="cls-2" transform="translate(450.06 72.51) rotate(26.31)"><tspan x="0" y="0">g</tspan></text><text class="cls-2" transform="translate(478.12 86.71) rotate(31.02)"><tspan x="0" y="0"> </tspan></text><text class="cls-2" transform="translate(491.82 94.94) rotate(34.17)"><tspan x="0" y="0">.</tspan></text><text class="cls-2" transform="translate(504.74 103.69) rotate(37.27)"><tspan x="0" y="0">.</tspan></text><text class="cls-2" transform="translate(517.15 113.12) rotate(40.36)"><tspan x="0" y="0">.</tspan></text><text class="cls-2" transform="translate(524.72 119.41) rotate(42.35)"><tspan x="0" y="0"> </tspan></text><text class="cls-2" transform="translate(536.54 130.15) rotate(45.52)"><tspan x="0" y="0"> </tspan></text><text class="cls-2" transform="translate(547.88 141.01) rotate(50.61)"><tspan x="0" y="0">L</tspan></text><text class="cls-2" transform="translate(570.41 168.4) rotate(57.53)"><tspan x="0" y="0">o</tspan></text><text class="cls-2" transform="translate(588.78 197.35) rotate(63.99)"><tspan x="0" y="0">a</tspan></text><text class="cls-2" transform="translate(602.29 224.7) rotate(70.42)"><tspan x="0" y="0">d</tspan></text><text class="cls-2" transform="translate(613.28 256.7) rotate(75.35)"><tspan x="0" y="0">i</tspan></text><text class="cls-2" transform="translate(617.58 271.41) rotate(80.28)"><tspan x="0" y="0">n</tspan></text><text class="cls-2" transform="translate(623.24 304.54) rotate(86.72)"><tspan x="0" y="0">g</tspan></text><text class="cls-2" transform="translate(624.75 335.97) rotate(91.35)"><tspan x="0" y="0"> </tspan></text><text class="cls-2" transform="translate(624.39 351.95) rotate(94.46)"><tspan x="0" y="0">.</tspan></text><text class="cls-2" transform="translate(623.19 367.51) rotate(97.56)"><tspan x="0" y="0">.</tspan></text><text class="cls-2" transform="translate(621.15 382.98) rotate(100.68)"><tspan x="0" y="0">.</tspan></text><text class="cls-2" transform="translate(619.45 392.64) rotate(102.69)"><tspan x="0" y="0"> </tspan></text><text class="cls-2" transform="translate(615.95 408.23) rotate(105.89)"><tspan x="0" y="0"> </tspan></text><text class="cls-2" transform="translate(612.13 423.46) rotate(111.06)"><tspan x="0" y="0">L</tspan></text><text class="cls-2" transform="translate(599.42 456.55) rotate(118.03)"><tspan x="0" y="0">o</tspan></text><text class="cls-2" transform="translate(583.27 486.78) rotate(124.48)"><tspan x="0" y="0">a</tspan></text><text class="cls-2" transform="translate(566.11 512.03) rotate(130.85)"><tspan x="0" y="0">d</tspan></text><text class="cls-2" transform="translate(543.7 537.4) rotate(135.72)"><tspan x="0" y="0">i</tspan></text><text class="cls-2" transform="translate(533.04 548.39) rotate(140.59)"><tspan x="0" y="0">n</tspan></text><text class="cls-2" transform="translate(507.05 569.75) rotate(147.02)"><tspan x="0" y="0">g</tspan></text><text class="cls-2" transform="translate(480.52 586.61) rotate(151.73)"><tspan x="0" y="0"> </tspan></text><text class="cls-2" transform="translate(466.45 594.19) rotate(154.88)"><tspan x="0" y="0">.</tspan></text><text class="cls-2" transform="translate(452.33 600.83) rotate(158.01)"><tspan x="0" y="0">.</tspan></text><text class="cls-2" transform="translate(437.88 606.68) rotate(161.14)"><tspan x="0" y="0">.</tspan></text><text class="cls-2" transform="translate(428.63 609.96) rotate(163.16)"><tspan x="0" y="0"> </tspan></text><text class="cls-2" transform="translate(413.33 614.61) rotate(166.37)"><tspan x="0" y="0"> </tspan></text><text class="cls-2" transform="translate(398.21 618.78) rotate(171.52)"><tspan x="0" y="0">L</tspan></text><text class="cls-2" transform="translate(363.13 624.04) rotate(178.41)"><tspan x="0" y="0">o</tspan></text><text class="cls-2" transform="translate(328.85 624.94) rotate(-175.22)"><tspan x="0" y="0">a</tspan></text><text class="cls-2" transform="translate(298.42 622.55) rotate(-168.83)"><tspan x="0" y="0">d</tspan></text><text class="cls-2" transform="translate(265.3 615.65) rotate(-163.91)"><tspan x="0" y="0">i</tspan></text><text class="cls-2" transform="translate(250.47 611.82) rotate(-158.97)"><tspan x="0" y="0">n</tspan></text><text class="cls-2" transform="translate(219.1 599.75) rotate(-152.48)"><tspan x="0" y="0">g</tspan></text><text class="cls-2" transform="translate(191.34 584.96) rotate(-147.77)"><tspan x="0" y="0"> </tspan></text><text class="cls-2" transform="translate(177.81 576.44) rotate(-144.63)"><tspan x="0" y="0">.</tspan></text><text class="cls-2" transform="translate(165.09 567.43) rotate(-141.53)"><tspan x="0" y="0">.</tspan></text><text class="cls-2" transform="translate(152.86 557.73) rotate(-138.44)"><tspan x="0" y="0">.</tspan></text><text class="cls-2" transform="translate(145.44 551.3) rotate(-136.45)"><tspan x="0" y="0"> </tspan></text><text class="cls-2" transform="translate(133.83 540.29) rotate(-133.28)"><tspan x="0" y="0"> </tspan></text><text class="cls-2" transform="translate(122.73 529.21) rotate(-128.19)"><tspan x="0" y="0">L</tspan></text><text class="cls-2" transform="translate(100.79 501.37) rotate(-121.27)"><tspan x="0" y="0">o</tspan></text><text class="cls-2" transform="translate(83.03 472.05) rotate(-114.8)"><tspan x="0" y="0">a</tspan></text><text class="cls-2" transform="translate(70.09 444.39) rotate(-108.36)"><tspan x="0" y="0">d</tspan></text><text class="cls-2" transform="translate(59.78 412.16) rotate(-103.43)"><tspan x="0" y="0">i</tspan></text><text class="cls-2" transform="translate(55.8 397.37) rotate(-98.51)"><tspan x="0" y="0">n</tspan></text><text class="cls-2" transform="translate(50.84 364.14) rotate(-92.09)"><tspan x="0" y="0">g</tspan></text><text class="cls-2" transform="translate(49.98 332.69) rotate(-87.47)"><tspan x="0" y="0"> </tspan></text><text class="cls-2" transform="translate(50.67 316.71) rotate(-84.34)"><tspan x="0" y="0">.</tspan></text><text class="cls-2" transform="translate(52.2 301.18) rotate(-81.23)"><tspan x="0" y="0">.</tspan></text><text class="cls-2" transform="translate(54.55 285.78) rotate(-78.12)"><tspan x="0" y="0">.</tspan></text><text class="cls-2" transform="translate(56.47 276.13) rotate(-76.1)"><tspan x="0" y="0"> </tspan></text><text class="cls-2" transform="translate(60.29 260.61) rotate(-72.89)"><tspan x="0" y="0"> </tspan></text><text class="cls-2" transform="translate(64.43 245.49) rotate(-67.73)"><tspan x="0" y="0">L</tspan></text><text class="cls-2" transform="translate(77.85 212.65) rotate(-60.76)"><tspan x="0" y="0">o</tspan></text><text class="cls-2" transform="translate(94.63 182.77) rotate(-54.31)"><tspan x="0" y="0">a</tspan></text><text class="cls-2" transform="translate(112.31 157.9) rotate(-47.96)"><tspan x="0" y="0">d</tspan></text><text class="cls-2" transform="translate(135.26 132.99) rotate(-43.08)"><tspan x="0" y="0">i</tspan></text><text class="cls-2" transform="translate(146.13 122.23) rotate(-38.22)"><tspan x="0" y="0">n</tspan></text><text class="cls-2" transform="translate(172.56 101.43) rotate(-31.77)"><tspan x="0" y="0">g</tspan></text><text class="cls-2" transform="translate(199.44 85.12) rotate(-27.07)"><tspan x="0" y="0"> </tspan></text><text class="cls-2" transform="translate(213.68 77.83) rotate(-23.9)"><tspan x="0" y="0">.</tspan></text><text class="cls-2" transform="translate(227.91 71.51) rotate(-20.78)"><tspan x="0" y="0">.</tspan></text><text class="cls-2" transform="translate(242.49 65.96) rotate(-17.64)"><tspan x="0" y="0">.</tspan></text><text class="cls-2" transform="translate(251.83 62.87) rotate(-15.63)"><tspan x="0" y="0"> </tspan></text><text class="cls-2" transform="translate(267.22 58.55) rotate(-12.42)"><tspan x="0" y="0"> </tspan></text><text class="cls-2" transform="translate(282.82 55.1) rotate(-9.22)"><tspan x="0" y="0"> </tspan></text></svg>