<?xml version="1.0" encoding="utf-8"?>
<!-- Generator: Adobe Illustrator 27.0.0, SVG Export Plug-In . SVG Version: 6.00 Build 0)  -->
<svg version="1.1" id="Layer_1" xmlns="http://www.w3.org/2000/svg" xmlns:xlink="http://www.w3.org/1999/xlink" x="0px" y="0px"
	 viewBox="0 0 64 64" style="enable-background:new 0 0 64 64;" xml:space="preserve">
<style type="text/css">
	.st0{fill:#434343;}
</style>
<path class="st0" d="M47,19.5c-0.5-7.8-7-14-15-14s-14.5,6.2-15,14c0,0.3,0,0.7,0,1v23c0,0.3,0,0.7,0,1c0.5,7.8,7,14,15,14
	s14.5-6.2,15-14c0-0.3,0-0.7,0-1v-23C47,20.2,47,19.8,47,19.5z M44.1,19.7L44.1,19.7c0,0.3,0,0.5,0,0.8V31H32.8v-5
	c1.6-0.4,2.9-1.8,3-3.4c0-0.1,0-0.2,0-0.3v-4.6c0-0.1,0-0.2,0-0.2c-0.1-1.7-1.4-3.1-3-3.5V8.4C38.9,8.8,43.7,13.6,44.1,19.7
	L44.1,19.7z M32,15.6c1.1,0,2.1,0.9,2.2,2.1v4.8c-0.1,1.1-1,2-2.1,2s-2.1-0.9-2.1-2v-4.8v-0.1C29.9,16.4,30.9,15.6,32,15.6z
	 M19.8,20.5c0-0.3,0-0.5,0-0.7v0l0,0c0.4-6.1,5.3-10.9,11.3-11.3v5.6c-1.6,0.4-2.9,1.8-3,3.4c0,0.1,0,0.2,0,0.3v4.6
	c0,0.1,0,0.2,0,0.2c0.1,1.7,1.4,3.1,3,3.5v5H19.8L19.8,20.5L19.8,20.5z M44.2,43.5c0,0.3,0,0.5,0,0.7v0l0,0
	c-0.4,6.4-5.7,11.4-12.1,11.4s-11.7-5-12.1-11.3v-0.1c0-0.2,0-0.5,0-0.7V33h24.3C44.2,33,44.2,43.5,44.2,43.5z"/>
</svg>
