<?xml version="1.0" encoding="UTF-8"?><svg id="Layer_1" xmlns="http://www.w3.org/2000/svg" viewBox="0 0 64 64"><defs><style>.cls-1{fill:#fcfaf2;}</style></defs><path class="cls-1" d="M46.96,19.5c-.51-7.82-7.02-14-14.96-14s-14.45,6.18-14.96,14c-.03,.33-.04,.66-.04,1v23c0,.34,.01,.67,.04,1,.51,7.82,7.02,14,14.96,14s14.45-6.18,14.96-14c.03-.33,.04-.66,.04-1V20.5c0-.34-.01-.67-.04-1Zm-2.83,.18v.08c.03,.21,.04,.45,.04,.74v10.55h-11.32v-5c1.63-.36,2.88-1.76,2.98-3.43,.02-.11,.02-.21,.02-.32v-4.6c0-.11,0-.21,0-.25-.11-1.73-1.36-3.13-2.99-3.5v-5.59c6,.42,10.89,5.24,11.28,11.32Zm-12.13-4.13c1.13,0,2.07,.88,2.15,2.07v4.83c-.08,1.12-1.02,2-2.15,2s-2.07-.88-2.14-2v-4.75s0-.15,0-.15c.07-1.12,1.01-2,2.14-2Zm-12.17,4.95c0-.29,.01-.53,.03-.74v-.04s.01-.04,.01-.04c.39-6.08,5.28-10.9,11.28-11.32v5.59c-1.63,.36-2.88,1.76-2.98,3.43-.02,.11-.02,.21-.02,.32v4.6c0,.11,0,.21,0,.25,.11,1.73,1.36,3.13,2.99,3.5v5h-11.32v-10.55Zm24.34,23c0,.29-.01,.53-.03,.74v.04s-.01,.04-.01,.04c-.41,6.36-5.74,11.35-12.13,11.35s-11.72-4.99-12.13-11.35v-.08c-.03-.21-.04-.45-.04-.74v-10.55h24.34v10.55Z"/></svg>