<?xml version="1.0" encoding="utf-8"?>
<!-- Generator: Adobe Illustrator 27.0.0, SVG Export Plug-In . SVG Version: 6.00 Build 0)  -->
<svg version="1.1" id="Layer_1" xmlns="http://www.w3.org/2000/svg" xmlns:xlink="http://www.w3.org/1999/xlink" x="0px" y="0px"
	 viewBox="0 0 64 64" style="enable-background:new 0 0 64 64;" xml:space="preserve">
<style type="text/css">
	.st0{fill:#434343;}
</style>
<path class="st0" d="M35.3,16.3c1.9,0,3.4,1.5,3.4,3.4v6.6c0,1.9-1.5,3.4-3.4,3.4h-6.6c-1.9,0-3.4-1.5-3.4-3.4v-6.6
	c0-1.9,1.5-3.4,3.4-3.4L35.3,16.3 M35.3,15h-6.6c-2.6,0-4.7,2.1-4.7,4.7v6.6c0,2.6,2.1,4.7,4.7,4.7h6.6c2.6,0,4.7-2.1,4.7-4.7v-6.6
	C40,17.1,37.9,15,35.3,15C35.3,15,35.3,15,35.3,15z"/>
<g>
	<path class="st0" d="M35.3,34.3c1.9,0,3.4,1.5,3.4,3.4v6.6c0,1.9-1.5,3.4-3.4,3.4h-6.6c-1.9,0-3.4-1.5-3.4-3.4v-6.6
		c0-1.9,1.5-3.4,3.4-3.4H35.3 M35.3,33h-6.6c-2.6,0-4.7,2.1-4.7,4.7v6.6c0,2.6,2.1,4.7,4.7,4.7h6.6c2.6,0,4.7-2.1,4.7-4.7v-6.6
		C40,35.1,37.9,33,35.3,33L35.3,33z"/>
	<path class="st0" d="M17.3,34.3c1.9,0,3.4,1.5,3.4,3.4v6.6c0,1.9-1.5,3.4-3.4,3.4h-6.6c-1.9,0-3.4-1.5-3.4-3.4v-6.6
		c0-1.9,1.5-3.4,3.4-3.4H17.3 M17.3,33h-6.6C8.1,33,6,35.1,6,37.7v6.6c0,2.6,2.1,4.7,4.7,4.7h6.6c2.6,0,4.7-2.1,4.7-4.7v-6.6
		C22,35.1,19.9,33,17.3,33L17.3,33z"/>
	<path class="st0" d="M53.3,34.3c1.9,0,3.4,1.5,3.4,3.4v6.6c0,1.9-1.5,3.4-3.4,3.4h-6.6c-1.9,0-3.4-1.5-3.4-3.4v-6.6
		c0-1.9,1.5-3.4,3.4-3.4H53.3 M53.3,33h-6.6c-2.6,0-4.7,2.1-4.7,4.7v6.6c0,2.6,2.1,4.7,4.7,4.7h6.6c2.6,0,4.7-2.1,4.7-4.7v-6.6
		C58,35.1,55.9,33,53.3,33L53.3,33z"/>
</g>
</svg>
