<?xml version="1.0" encoding="UTF-8"?><svg id="Layer_1" xmlns="http://www.w3.org/2000/svg" viewBox="0 0 64 64"><defs><style>.cls-1{fill:#fcfaf2;}</style></defs><path class="cls-1" d="M35.31,16.28c1.88,0,3.41,1.53,3.41,3.41v6.62c0,1.88-1.53,3.41-3.41,3.41h-6.62c-1.88,0-3.41-1.53-3.41-3.41v-6.62c0-1.88,1.53-3.41,3.41-3.41h6.62m0-1.28h-6.62c-2.59,0-4.69,2.1-4.69,4.69v6.62c0,2.59,2.1,4.69,4.69,4.69h6.62c2.59,0,4.69-2.1,4.69-4.69v-6.62c0-2.59-2.1-4.69-4.69-4.69h0Z"/><g><path class="cls-1" d="M35.31,34.28c1.88,0,3.41,1.53,3.41,3.41v6.62c0,1.88-1.53,3.41-3.41,3.41h-6.62c-1.88,0-3.41-1.53-3.41-3.41v-6.62c0-1.88,1.53-3.41,3.41-3.41h6.62m0-1.28h-6.62c-2.59,0-4.69,2.1-4.69,4.69v6.62c0,2.59,2.1,4.69,4.69,4.69h6.62c2.59,0,4.69-2.1,4.69-4.69v-6.62c0-2.59-2.1-4.69-4.69-4.69h0Z"/><path class="cls-1" d="M17.31,34.28c1.88,0,3.41,1.53,3.41,3.41v6.62c0,1.88-1.53,3.41-3.41,3.41h-6.62c-1.88,0-3.41-1.53-3.41-3.41v-6.62c0-1.88,1.53-3.41,3.41-3.41h6.62m0-1.28h-6.62c-2.59,0-4.69,2.1-4.69,4.69v6.62c0,2.59,2.1,4.69,4.69,4.69h6.62c2.59,0,4.69-2.1,4.69-4.69v-6.62c0-2.59-2.1-4.69-4.69-4.69h0Z"/><path class="cls-1" d="M53.31,34.28c1.88,0,3.41,1.53,3.41,3.41v6.62c0,1.88-1.53,3.41-3.41,3.41h-6.62c-1.88,0-3.41-1.53-3.41-3.41v-6.62c0-1.88,1.53-3.41,3.41-3.41h6.62m0-1.28h-6.62c-2.59,0-4.69,2.1-4.69,4.69v6.62c0,2.59,2.1,4.69,4.69,4.69h6.62c2.59,0,4.69-2.1,4.69-4.69v-6.62c0-2.59-2.1-4.69-4.69-4.69h0Z"/></g></svg>